<svg width="475" height="475" xmlns="http://www.w3.org/2000/svg" version="1.1">

 <g>
  <title>Layer 1</title>
  <path id="svg_7" d="m69.19,241.5l27.99,7.98l11.43,3.09q8.93,2.7 18.09,5.31c6.93,1.97 8.98,10.65 3.99,15.52c-3.38,3.3 -6.75,3 -11.38,1.72q-5.7,-1.56 -11.08,-3l-19.06,-5.05q-0.17,-0.11 -0.46,-0.34q-0.24,-0.19 -0.5,-0.26q-19.09,-5.18 -21.49,-5.83q-5.87,-1.59 -7.28,-7.49q-0.79,-3.34 1.01,-6.22q1.14,-1.81 1.82,-3.12l6.92,-2.31z" fill="#000000"/>
  <path id="svg_13" d="m276.09,290.05a59.44,59.44 0 0 1 -59.44,59.44a59.44,59.44 0 0 1 -59.44,-59.44a59.44,59.44 0 0 1 59.44,-59.44a59.44,59.44 0 0 1 59.44,59.44zm-9.76,-0.05a49.66,49.66 0 0 0 -49.66,-49.66a49.66,49.66 0 0 0 -49.66,49.66a49.66,49.66 0 0 0 49.66,49.66a49.66,49.66 0 0 0 49.66,-49.66z" fill="#000000"/>
  <rect transform="rotate(15.2 146.46 269.88)" id="svg_14" rx="5.28" height="32.56" width="10.92" y="253.6" x="141.00001" fill="#000000"/>
  <path id="svg_18" d="m190.8,265.24q-1.67,1.86 -2.18,2.3q-0.38,0.32 -0.88,0.23c-2.85,-0.53 -4.21,-2.81 -2.29,-5.31c5.66,-7.4 15.46,-12.31 24.39,-13.71c15.87,-2.5 30.18,0.98 39.62,15.06q7.01,10.46 9.06,25.02a2.53,2.53 0 0 1 -1.77,2.77l-0.35,0.11a2.77,2.76 76.6 0 1 -3.53,-2.18c-1.75,-10.13 -4.83,-18.53 -10.99,-26.01c-7.95,-9.65 -21.01,-10.96 -32.49,-8.61c-7.04,1.44 -13.75,4.93 -18.59,10.33z" fill="#000000"/>
 </g>
</svg>